<svg xmlns="http://www.w3.org/2000/svg" style="display: none;">
  <!-- Content Type Icons -->
  <symbol id="icon-story" viewBox="0 0 24 24" fill="none" stroke="currentColor" stroke-width="1.5" stroke-linecap="round" stroke-linejoin="round">
    <path d="M4 4h12l4 4v12a2 2 0 01-2 2H6a2 2 0 01-2-2V4z"/>
    <path d="M16 4v4h4"/>
    <path d="M8 12h8M8 16h5"/>
  </symbol>

  <symbol id="icon-anthology" viewBox="0 0 24 24" fill="none" stroke="currentColor" stroke-width="1.5" stroke-linecap="round" stroke-linejoin="round">
    <path d="M4 19.5A2.5 2.5 0 016.5 17H20"/>
    <path d="M4 4.5A2.5 2.5 0 016.5 2H20v20H6.5A2.5 2.5 0 014 19.5v-15z"/>
    <path d="M8 7h8M8 11h5"/>
  </symbol>

  <symbol id="icon-chapter" viewBox="0 0 24 24" fill="none" stroke="currentColor" stroke-width="1.5" stroke-linecap="round" stroke-linejoin="round">
    <path d="M19 21l-7-5-7 5V5a2 2 0 012-2h10a2 2 0 012 2v16z"/>
  </symbol>

  <symbol id="icon-category" viewBox="0 0 24 24" fill="none" stroke="currentColor" stroke-width="1.5" stroke-linecap="round" stroke-linejoin="round">
    <path d="M3 7v10a2 2 0 002 2h14a2 2 0 002-2V9a2 2 0 00-2-2h-6l-2-2H5a2 2 0 00-2 2z"/>
  </symbol>

  <!-- Action Icons -->
  <symbol id="icon-star" viewBox="0 0 24 24" stroke="currentColor" stroke-width="1.5">
    <path d="M12 2l3.09 6.26L22 9.27l-5 4.87 1.18 6.88L12 17.77l-6.18 3.25L7 14.14 2 9.27l6.91-1.01L12 2z"/>
  </symbol>

  <symbol id="icon-eye-open" viewBox="0 0 24 24" fill="none" stroke="currentColor" stroke-width="1.5">
    <path d="M1 12s4-8 11-8 11 8 11 8-4 8-11 8-11-8-11-8z"/>
    <circle cx="12" cy="12" r="3"/>
  </symbol>

  <symbol id="icon-eye-closed" viewBox="0 0 24 24" fill="none" stroke="currentColor" stroke-width="1.5">
    <path d="M17.94 17.94A10.07 10.07 0 0112 20c-7 0-11-8-11-8a18.45 18.45 0 015.06-5.94M9.9 4.24A9.12 9.12 0 0112 4c7 0 11 8 11 8a18.5 18.5 0 01-2.16 3.19m-6.72-1.07a3 3 0 11-4.24-4.24"/>
    <line x1="1" y1="1" x2="23" y2="23"/>
  </symbol>

  <symbol id="icon-check" viewBox="0 0 24 24" fill="none" stroke="currentColor">
    <path d="M20 6L9 17l-5-5"/>
  </symbol>

  <symbol id="icon-hide" viewBox="0 0 24 24" fill="none" stroke="currentColor" stroke-width="1.5">
    <path d="M5 12h14"/>
  </symbol>

  <symbol id="icon-show" viewBox="0 0 24 24" fill="none" stroke="currentColor" stroke-width="1.5">
    <path d="M12 5v14M5 12h14"/>
  </symbol>

  <!-- Navigation Icons -->
  <symbol id="icon-chevron-left" viewBox="0 0 24 24" fill="none" stroke="currentColor" stroke-width="2" stroke-linecap="round" stroke-linejoin="round">
    <path d="M15 18l-6-6 6-6"/>
  </symbol>

  <symbol id="icon-chevron-right" viewBox="0 0 24 24" fill="none" stroke="currentColor" stroke-width="2" stroke-linecap="round" stroke-linejoin="round">
    <path d="M9 18l6-6-6-6"/>
  </symbol>
</svg>
